<svg id="Layer_1" data-name="Layer 1" xmlns="http://www.w3.org/2000/svg" viewBox="0 0 260.65 301.08"><defs><style>.cls-1{fill:#eabf7a;}.cls-2{fill:#231f20;}</style></defs><polygon class="cls-1" points="12.68 19.75 84.34 261.6 124.65 194.42 209.74 292.94 250.05 266.07 164.96 163.07 236.61 131.72 12.68 19.75"/><path class="cls-2" d="M357.93,392.44a9.54,9.54,0,0,1-10.11-2.94l-79.57-94.72-29.79,61.45a9.5,9.5,0,0,1-17.61-1.33L142.72,104.12a9.5,9.5,0,0,1,13.47-11.24L388.79,215a9.51,9.51,0,0,1-1.89,17.58l-65.57,18.1,79.38,94.42a9.49,9.49,0,0,1-1.16,13.39l-38.36,32.2A9.05,9.05,0,0,1,357.93,392.44Zm-94.66-124a9.48,9.48,0,0,1,10.1,3L356.26,370l23.79-20-82.79-98.5A9.52,9.52,0,0,1,302,236.23l56.64-15.62-191-100.25,64.16,206,25.71-53A9.47,9.47,0,0,1,263.27,268.39Z" transform="translate(-142.29 -91.79)"/><path class="cls-2" d="M357.93,392.44a9.54,9.54,0,0,1-10.11-2.94l-79.57-94.72-29.79,61.45a9.5,9.5,0,0,1-17.61-1.33L142.72,104.12a9.5,9.5,0,0,1,13.47-11.24L388.79,215a9.51,9.51,0,0,1-1.89,17.58l-65.57,18.1,79.38,94.42a9.49,9.49,0,0,1-1.16,13.39l-38.36,32.2A9.05,9.05,0,0,1,357.93,392.44Zm-94.66-124a9.48,9.48,0,0,1,10.1,3L356.26,370l23.79-20-82.79-98.5A9.52,9.52,0,0,1,302,236.23l56.64-15.62-191-100.25,64.16,206,25.71-53A9.47,9.47,0,0,1,263.27,268.39Z" transform="translate(-142.29 -91.79)"/></svg>