<svg id="Layer_1" data-name="Layer 1" xmlns="http://www.w3.org/2000/svg" viewBox="0 0 256.79 240.71"><defs><style>.cls-1{fill:#eabf7a;}.cls-2{fill:#010101;}</style></defs><path class="cls-1" d="M182.61,149.33h32.67c4.66,9.07,9.33,22.68,4.66,27.21-6.91,6.72-1.49,21.14-4.66,31.76h25.66l-2.33-20.42h25.67v15.88H290V178.81l-7-2.27V160.67h9.33L290,149.33l7-2.27h25.67v13.61l7-2.27v18.14h-7V206h21l18.67,38.56L374,280.88l4.66,27.21L374,319.43H350.62l7,36.29v27.22h-63L297,317.16l-88.67,4.54v61.24l-63-2.27,7-61.24H126.6V294.48l7-31.75,14-34L159.27,206h23.34V176.54h-7l-2.34-13.6,2.34-4.54h4.66Z" transform="translate(-124.03 -144.5)"/><path class="cls-2" d="M377.6,321.26H127.25a3,3,0,0,1-3-2.8c-1.78-33,9.2-71,32.66-112.92a3,3,0,0,1,2.66-1.54H345.31a3,3,0,0,1,2.66,1.54c23.45,41.91,34.44,79.9,32.66,112.92A3,3,0,0,1,377.6,321.26Zm-247.43-5.9H374.69c.95-30.87-9.53-66.32-31.19-105.46H161.35C139.69,249,129.21,284.49,130.17,315.36Z" transform="translate(-124.03 -144.5)"/><path class="cls-2" d="M252,321.26H230.89a3,3,0,0,1-3-2.95V207a3,3,0,0,1,3-2.95H252a3,3,0,0,1,3,2.95V318.31A3,3,0,0,1,252,321.26Zm-18.08-5.9h15V209.9h-15Z" transform="translate(-124.03 -144.5)"/><path class="cls-2" d="M274,321.26H252.85a3,3,0,1,1,0-5.9h18.08V209.9H252.85a3,3,0,1,1,0-5.9H274a3,3,0,0,1,3,2.95V318.31A3,3,0,0,1,274,321.26Z" transform="translate(-124.03 -144.5)"/><path class="cls-2" d="M263.41,209.9h-22a3,3,0,0,1-3-3V188.4a3,3,0,0,1,3-3h22a3,3,0,0,1,3,3V207A3,3,0,0,1,263.41,209.9ZM244.48,204h15.89V191.35H244.48Z" transform="translate(-124.03 -144.5)"/><path class="cls-2" d="M215.07,161.91a3,3,0,0,1-3-3V150.4H185.42V159a3,3,0,0,1-6.08,0v-11.5a3,3,0,0,1,3-2.95h32.69a3,3,0,0,1,3,2.95V159A3,3,0,0,1,215.07,161.91Z" transform="translate(-124.03 -144.5)"/><path class="cls-2" d="M215.07,209.41a3,3,0,0,1-3-2.95V177a3,3,0,0,1,6.08,0v29.51A3,3,0,0,1,215.07,209.41Z" transform="translate(-124.03 -144.5)"/><path class="cls-2" d="M182.38,209.41a3,3,0,0,1-3-2.95V177a3,3,0,0,1,6.07,0v29.51A3,3,0,0,1,182.38,209.41Z" transform="translate(-124.03 -144.5)"/><path class="cls-2" d="M329.6,179.9H283a3,3,0,0,1-3-3V159a3,3,0,0,1,3-2.95H329.6a3,3,0,0,1,3,2.95v18A3,3,0,0,1,329.6,179.9ZM286,174h40.58V161.91H286Z" transform="translate(-124.03 -144.5)"/><path class="cls-2" d="M322.62,161.91a3,3,0,0,1-3-3V150.4H293V159a3,3,0,0,1-6.07,0v-11.5a3,3,0,0,1,3-2.95h32.7a3,3,0,0,1,3,2.95V159A3,3,0,0,1,322.62,161.91Z" transform="translate(-124.03 -144.5)"/><path class="cls-2" d="M322.62,209.41a3,3,0,0,1-3-2.95V177a3,3,0,0,1,6.08,0v29.51A3,3,0,0,1,322.62,209.41Z" transform="translate(-124.03 -144.5)"/><path class="cls-2" d="M289.93,209.41a3,3,0,0,1-3-2.95V177a3,3,0,0,1,6.07,0v29.51A3,3,0,0,1,289.93,209.41Z" transform="translate(-124.03 -144.5)"/><path class="cls-2" d="M289.61,179.9a3,3,0,0,1-3-3V159a3,3,0,0,1,6.08,0v18A3,3,0,0,1,289.61,179.9Z" transform="translate(-124.03 -144.5)"/><path class="cls-2" d="M322.93,179.9a3,3,0,0,1-3-3V159a3,3,0,0,1,6.07,0v18A3,3,0,0,1,322.93,179.9Z" transform="translate(-124.03 -144.5)"/><path class="cls-2" d="M311.82,179.9a3,3,0,0,1-3-3V159a3,3,0,0,1,6.07,0v18A3,3,0,0,1,311.82,179.9Z" transform="translate(-124.03 -144.5)"/><path class="cls-2" d="M300.72,179.9a3,3,0,0,1-3-3V159a3,3,0,0,1,6.08,0v18A3,3,0,0,1,300.72,179.9Z" transform="translate(-124.03 -144.5)"/><path class="cls-2" d="M222.06,179.9H175.4a3,3,0,0,1-3-3V159a3,3,0,0,1,3-2.95h46.66a3,3,0,0,1,3,2.95v18A3,3,0,0,1,222.06,179.9ZM178.43,174H219V161.91H178.43Z" transform="translate(-124.03 -144.5)"/><path class="cls-2" d="M182.06,179.9a3,3,0,0,1-3-3V159a3,3,0,0,1,6.08,0v18A3,3,0,0,1,182.06,179.9Z" transform="translate(-124.03 -144.5)"/><path class="cls-2" d="M215.39,179.9a3,3,0,0,1-3-3V159a3,3,0,0,1,6.07,0v18A3,3,0,0,1,215.39,179.9Z" transform="translate(-124.03 -144.5)"/><path class="cls-2" d="M204.28,179.9a3,3,0,0,1-3-3V159a3,3,0,0,1,6.07,0v18A3,3,0,0,1,204.28,179.9Z" transform="translate(-124.03 -144.5)"/><path class="cls-2" d="M193.17,179.9a3,3,0,0,1-3-3V159a3,3,0,0,1,6.08,0v18A3,3,0,0,1,193.17,179.9Z" transform="translate(-124.03 -144.5)"/><path class="cls-2" d="M207.46,385.21H145a3.06,3.06,0,0,1-2.26-1,2.86,2.86,0,0,1-.75-2.3L149.48,318a3,3,0,0,1,3.36-2.6,3,3,0,0,1,2.67,3.27l-7.13,60.66h56v-61a3,3,0,0,1,6.08,0v63.95A3,3,0,0,1,207.46,385.21Z" transform="translate(-124.03 -144.5)"/><path class="cls-2" d="M358.94,385.21H296.46a3,3,0,0,1-3-2.95V318.31a3,3,0,0,1,6.07,0v61h56.05l-7.13-60.67a3,3,0,0,1,2.67-3.26,3,3,0,0,1,3.36,2.59L362,381.92a2.86,2.86,0,0,1-.75,2.3A3.08,3.08,0,0,1,358.94,385.21Z" transform="translate(-124.03 -144.5)"/><path class="cls-2" d="M207.46,365h-58.7a3,3,0,1,1,0-5.9h58.7a3,3,0,1,1,0,5.9Z" transform="translate(-124.03 -144.5)"/><path class="cls-2" d="M355.39,365H296.46a3,3,0,1,1,0-5.9h58.93a3,3,0,1,1,0,5.9Z" transform="translate(-124.03 -144.5)"/></svg>