<svg id="Layer_1" data-name="Layer 1" xmlns="http://www.w3.org/2000/svg" viewBox="0 0 308.79 308.38"><defs><style>.cls-1{fill:#eabf7a;}.cls-2{fill:#010101;}</style></defs><polygon class="cls-1" points="11.96 202.3 32.67 158.58 69.49 103.36 143.12 38.93 173.03 22.82 223.65 4.42 230.56 6.72 221.35 41.23 175.33 117.16 133.91 160.88 83.29 197.7 32.67 225.31 7.36 232.21 0.46 225.31 11.96 202.3"/><polygon class="cls-1" points="281.18 48.13 306.49 71.14 253.56 119.47 230.56 101.06 276.57 45.83 281.18 48.13"/><polygon class="cls-1" points="48.78 278.23 101.7 232.21 120.11 248.32 74.09 305.85 48.78 278.23"/><path class="cls-2" d="M218.64,282.89A14,14,0,0,1,208.9,279L192,262a13.77,13.77,0,0,1,0-19.33l57-57.05c4.12-4.1,12.26-8.44,19.23-8.44a14.75,14.75,0,0,1,3.77.46,29.72,29.72,0,0,1,21.21,21.21c2.11,8.1-3.51,18.5-8,23L228.17,279A13.24,13.24,0,0,1,218.64,282.89Zm49.61-98.76c-5.15,0-11.65,3.73-14.36,6.42l-57.07,57.06a6.84,6.84,0,0,0,.1,9.59L213.74,274a7.08,7.08,0,0,0,9.54.07L280.36,217c3.37-3.39,7.46-11.45,6.18-16.37a23.1,23.1,0,0,0-16.28-16.27A7.39,7.39,0,0,0,268.25,184.13Z" transform="translate(-119.13 -117.89)"/><path class="cls-2" d="M211.66,313a3.47,3.47,0,0,1-2.44-1l-50.29-50.3a3.45,3.45,0,0,1,4.88-4.88l50.29,50.29a3.46,3.46,0,0,1-2.44,5.9Z" transform="translate(-119.13 -117.89)"/><path class="cls-2" d="M189.85,325.7a3.47,3.47,0,0,1-2.44-1l-41.19-41.2a3.45,3.45,0,0,1,4.88-4.88l41.2,41.2a3.45,3.45,0,0,1-2.45,5.89Z" transform="translate(-119.13 -117.89)"/><path class="cls-2" d="M128.62,351.78a9.3,9.3,0,0,1-7.55-3.44c-1.9-2.45-2.43-5.84-1.48-9.55.18-.73,19.16-73.33,83.13-137.31S339.31,118.53,340,118.34c4.59-1.16,8.72,0,11.05,3,1.9,2.44,2.43,5.84,1.48,9.55-.18.73-19.15,73.32-83.14,137.31s-136.57,82.95-137.3,83.13A14.06,14.06,0,0,1,128.62,351.78Zm214.91-227a7.13,7.13,0,0,0-1.8.25c-.71.18-71.55,18.75-134.12,81.32s-81.15,133.42-81.33,134.12c-.4,1.59-.31,2.9.24,3.62a2.67,2.67,0,0,0,2.1.77,7.13,7.13,0,0,0,1.8-.25c.71-.18,71.55-18.75,134.12-81.33s81.15-133.41,81.33-134.12a4.45,4.45,0,0,0-.24-3.62A2.67,2.67,0,0,0,343.53,124.79Z" transform="translate(-119.13 -117.89)"/><path class="cls-2" d="M333.79,173.65a3.4,3.4,0,0,1-1-.15L272,155.2a3.45,3.45,0,1,1,2-6.61l60.78,18.3a3.45,3.45,0,0,1-1,6.76Z" transform="translate(-119.13 -117.89)"/><path class="cls-2" d="M342.69,152.77a3.45,3.45,0,0,1-1-.15l-41.47-12.49a3.45,3.45,0,1,1,2-6.61L343.69,146a3.45,3.45,0,0,1-1,6.76Z" transform="translate(-119.13 -117.89)"/><path class="cls-2" d="M334.05,173a3.45,3.45,0,0,1-3.31-2.46L318.3,129.23a3.45,3.45,0,0,1,6.61-2l12.44,41.35a3.46,3.46,0,0,1-3.3,4.45Z" transform="translate(-119.13 -117.89)"/><path class="cls-2" d="M319.05,201.52a3.47,3.47,0,0,1-3.31-2.46l-18.34-60.9a3.46,3.46,0,0,1,6.62-2l18.34,60.9a3.45,3.45,0,0,1-2.32,4.3A3.35,3.35,0,0,1,319.05,201.52Z" transform="translate(-119.13 -117.89)"/><path class="cls-2" d="M234.09,360.29a3.45,3.45,0,0,1-2.44-5.89L354.79,231.26a3.45,3.45,0,0,1,4.88,4.88L236.53,359.28A3.44,3.44,0,0,1,234.09,360.29Z" transform="translate(-119.13 -117.89)"/><path class="cls-2" d="M369.86,241.54a8.48,8.48,0,0,1-6.07-2.52l-13.28-13.28a8.57,8.57,0,0,1,0-12.12l42.07-49.29a8.62,8.62,0,0,1,12.3-.2l20.53,20.52a8.59,8.59,0,0,1,0,12.13l-49.69,42.43A8.29,8.29,0,0,1,369.86,241.54Zm29-73a1.66,1.66,0,0,0-1.17.49L355.58,218.3a1.94,1.94,0,0,0-.68,1.38,1.68,1.68,0,0,0,.49,1.18l13.29,13.29a1.67,1.67,0,0,0,2.36,0l49.69-42.43a1.69,1.69,0,0,0-.2-2.19L400,169A1.71,1.71,0,0,0,398.82,168.52Z" transform="translate(-119.13 -117.89)"/><path class="cls-2" d="M371.06,221.94a3.41,3.41,0,0,1-2.44-1,3.45,3.45,0,0,1,0-4.88l30.18-30.18a3.45,3.45,0,0,1,4.88,4.88L373.5,220.92A3.42,3.42,0,0,1,371.06,221.94Z" transform="translate(-119.13 -117.89)"/><path class="cls-2" d="M192.37,426.28a8.55,8.55,0,0,1-6.06-2.51l-20.53-20.53a8.58,8.58,0,0,1,0-12.13l49.69-42.43c2.84-2.87,8.69-3.06,11.93.18l13.28,13.28a8.59,8.59,0,0,1,0,12.13l-42.06,49.29A8.67,8.67,0,0,1,192.37,426.28Zm29-73a1.67,1.67,0,0,0-1.19.49l-49.69,42.43a1.61,1.61,0,0,0-.29,1,1.63,1.63,0,0,0,.49,1.18l20.52,20.53a1.69,1.69,0,0,0,2.38,0l42.05-49.29a1.77,1.77,0,0,0,.19-2.57l-13.28-13.28A1.69,1.69,0,0,0,221.34,353.26Z" transform="translate(-119.13 -117.89)"/><path class="cls-2" d="M190,403a3.45,3.45,0,0,1-2.44-5.89L217.69,367a3.45,3.45,0,0,1,4.88,4.88L192.39,402A3.45,3.45,0,0,1,190,403Z" transform="translate(-119.13 -117.89)"/></svg>