<svg id="Layer_1" data-name="Layer 1" xmlns="http://www.w3.org/2000/svg" viewBox="0 0 240.6 325.03"><defs><style>.cls-1{fill:#eabf7a;}.cls-2{fill:#231f20;}</style></defs><polygon class="cls-1" points="181.37 61.36 207.53 93.38 226.54 128.06 233.68 152.07 238.43 184.09 226.54 226.77 207.53 264.13 193.26 282.8 221.79 320.15 145.71 322.82 171.87 282.8 143.34 242.78 129.07 194.76 129.07 157.41 150.47 101.38 181.37 61.36"/><polygon class="cls-1" points="83.9 125.39 95.79 130.73 100.54 141.4 100.54 152.07 91.03 162.74 91.03 282.8 76.77 306.81 62.5 320.15 36.35 320.15 14.96 304.14 5.45 280.13 3.07 256.12 22.09 272.13 14.96 274.8 17.33 290.8 24.46 298.81 36.35 306.81 52.99 309.48 64.88 304.14 76.77 288.14 79.15 253.45 79.15 160.07 69.64 152.07 69.64 141.4 69.64 136.06 83.9 125.39"/><path class="cls-2" d="M191.15,224.13a3.57,3.57,0,0,1-3.35-3.76V102.77a3.38,3.38,0,1,1,6.71,0v117.6A3.57,3.57,0,0,1,191.15,224.13Z" transform="translate(-105.97 -99.01)"/><path class="cls-2" d="M327,424H249.91a3.34,3.34,0,0,1-3-2.15,4.14,4.14,0,0,1,.43-4l26.15-35.82c-17-20.7-43.14-59.91-43.14-105.35,0-34.29,15.24-65,28-84.7a209.8,209.8,0,0,1,27.93-34.82,3.08,3.08,0,0,1,4.34,0A209.47,209.47,0,0,1,318.54,192c12.79,19.71,28,50.41,28,84.7,0,45.46-26.13,84.65-43.14,105.35l26.15,35.82a4.14,4.14,0,0,1,.43,4A3.34,3.34,0,0,1,327,424Zm-70-7.53H319.9l-23.51-32.22a4.1,4.1,0,0,1,.16-5c16.18-19.13,43.32-57.91,43.32-102.59,0-54.73-41.38-101.14-51.42-111.59C278.41,175.6,237,222.07,237,276.73c0,44.67,27.14,83.45,43.32,102.59a4.11,4.11,0,0,1,.16,5Z" transform="translate(-105.97 -99.01)"/><path class="cls-2" d="M288.45,276.71c-15.75,0-27.63-6.88-27.63-16a3.38,3.38,0,1,1,6.71,0c0,3.38,8.34,8.47,20.92,8.47s20.92-5.09,20.92-8.47a3.38,3.38,0,1,1,6.71,0C316.08,269.83,304.2,276.71,288.45,276.71Z" transform="translate(-105.97 -99.01)"/><path class="cls-2" d="M288.45,250.37c-15.75,0-27.63-6.88-27.63-16a3.38,3.38,0,1,1,6.71,0c0,3.38,8.34,8.47,20.92,8.47s20.92-5.09,20.92-8.47a3.38,3.38,0,1,1,6.71,0C316.08,243.49,304.2,250.37,288.45,250.37Z" transform="translate(-105.97 -99.01)"/><ellipse class="cls-2" cx="172.42" cy="107.46" rx="5.67" ry="6.36"/><path class="cls-2" d="M280.07,422.7a3.58,3.58,0,0,1-3.36-3.76V403.39a3.38,3.38,0,1,1,6.71,0v15.55A3.57,3.57,0,0,1,280.07,422.7Z" transform="translate(-105.97 -99.01)"/><path class="cls-2" d="M296.83,422.7a3.57,3.57,0,0,1-3.35-3.76V403.39a3.38,3.38,0,1,1,6.71,0v15.55A3.58,3.58,0,0,1,296.83,422.7Z" transform="translate(-105.97 -99.01)"/><path class="cls-2" d="M153,424c-25.19,0-45.95-22.67-46.8-50.79A3.69,3.69,0,0,1,106,372V350.71a3.79,3.79,0,0,1,2.07-3.47,3.08,3.08,0,0,1,3.65.81l18.57,20.84a3.9,3.9,0,0,1,1.42,3.07c0,2.09-1.52,3.89-3.39,3.76h-4.73C125.45,392.07,138,404.8,153,404.8c16.38,0,29.7-14.95,29.7-33.33V262.72C176,259.1,171.61,251.47,171.61,243c0-12.09,8.76-21.93,19.54-21.93S210.7,230.86,210.7,243c0,8.38-4.27,15.95-10.85,19.63V371.47C199.85,400.45,178.83,424,153,424Zm-40.32-53.31a3.62,3.62,0,0,1,.2,1.19c.23,24.59,18.23,44.59,40.12,44.59,22.14,0,40.14-20.21,40.14-45.05V260.08a3.77,3.77,0,0,1,2.25-3.55c5.15-2,8.61-7.48,8.61-13.58,0-7.95-5.76-14.41-12.84-14.41S178.32,235,178.32,243c0,6.2,3.53,11.69,8.8,13.66a3.75,3.75,0,0,1,2.29,3.57V371.46c0,22.53-16.33,40.86-36.4,40.86-19.81,0-36.13-18.08-36.39-40.31a4,4,0,0,1,1-2.7A3.18,3.18,0,0,1,120,368.2h.2l-7.49-8.4v10.93Z" transform="translate(-105.97 -99.01)"/><path class="cls-2" d="M191.15,255.8c-6.31,0-11.45-5.77-11.45-12.85s5.14-12.85,11.45-12.85S202.6,235.86,202.6,243,197.47,255.8,191.15,255.8Zm0-18.17a5.06,5.06,0,0,0-4.74,5.32c0,2.93,2.13,5.32,4.74,5.32a5.35,5.35,0,0,0,0-10.64Z" transform="translate(-105.97 -99.01)"/></svg>