<svg id="Layer_1" data-name="Layer 1" xmlns="http://www.w3.org/2000/svg" viewBox="0 0 339.2 317.1"><defs><style>.cls-1{fill:#eabf7a;}.cls-2{fill:#231f20;}</style></defs><polygon class="cls-1" points="1.44 170.19 82.36 108.53 82.36 99.72 103.33 93.84 115.32 93.84 145.29 87.97 157.28 49.8 205.23 5.75 217.22 40.99 217.22 82.1 238.19 102.65 265.17 155.51 328.1 252.41 331.1 272.97 307.12 302.33 277.15 296.46 238.19 264.16 202.23 264.16 157.28 243.6 136.3 231.86 136.3 258.29 148.29 317.01 1.44 170.19"/><path class="cls-2" d="M177.83,195.19a4.92,4.92,0,0,0-1.62.5l-20.79,9.08a5.2,5.2,0,0,0-2.71,7c40.4,84.53,75.58,112.67,156.67,167.94l6.07-8.56c-78.92-53.8-112.21-80.39-150.71-158.91l10.79-4.87c29.2,69.56,75.81,116.78,152.12,160.94l5.42-9C256,314.7,211.54,269,183.33,198.5a5.35,5.35,0,0,0-5.49-3.3Z" transform="translate(-73.59 -110.41)"/><path class="cls-2" d="M279.19,110.45a5.64,5.64,0,0,0-2.09.67c-38.35,21.3-58.17,48.19-58.83,81-15-.53-27.53,3.41-39.8,11.69-5.85,4,.22,12.56,6.07,8.59,11.94-8.05,23.42-11.07,38.5-9.55a5.29,5.29,0,0,0,5.89-5.39c-.77-29.22,14.42-53.87,48-74.12,8.35,23,11.09,46.28,7.75,66.75a5.2,5.2,0,0,0,2.55,5.33c16.48,9.45,24.94,23,32.73,39.41s14.63,35.74,27.79,54.7l44.41,64a5.22,5.22,0,0,0,.93.95,25.6,25.6,0,0,1,2.36,36.87l-7.07,7.85a26.86,26.86,0,0,1-37.63,2.32l-32-27.63c-5.33-5.44-13.2,3.22-7.08,7.78l32,27.7a37.93,37.93,0,0,0,52.71-3.24l7.07-7.85a36.13,36.13,0,0,0-3.31-51.65l.86,1-44.49-64c-12.22-17.62-18.8-36.08-26.91-53.22C322,214.32,311.75,199.79,294.87,189c3.42-24.37.15-49.53-10.11-75.26a5.34,5.34,0,0,0-5.57-3.29Z" transform="translate(-73.59 -110.41)"/><path class="cls-2" d="M192.61,301.55a5.25,5.25,0,0,0-4.81,5.68,5.08,5.08,0,0,0,.66,2.07c15.44,28.42,32,46.07,52.46,56.89s44.17,14.73,74,16.86a5.26,5.26,0,1,0,.82-10.48h-.07C286.37,370.48,264.3,366.69,246,357s-33.26-25.31-48.09-52.6a5.36,5.36,0,0,0-5.31-2.85Z" transform="translate(-73.59 -110.41)"/><path class="cls-2" d="M210.8,333.11a5.3,5.3,0,0,0-4.83,4.63,162.36,162.36,0,0,0,1.94,56.06,194.44,194.44,0,0,0,7,24.45c.69,2,1.36,3.87,2.11,5.82a5.37,5.37,0,0,0,6.85,3.13,5.21,5.21,0,0,0,3.19-6.71l0-.05c-.71-1.86-1.43-3.7-2.1-5.59a184.93,184.93,0,0,1-6.61-23.24,151.45,151.45,0,0,1-1.79-52.51,5.24,5.24,0,0,0-4.47-6,6,6,0,0,0-1.27,0Z" transform="translate(-73.59 -110.41)"/><path class="cls-2" d="M157.47,212.13a5.42,5.42,0,0,0-2.31.84,415.54,415.54,0,0,0-65.53,51.87Q82.25,272,75.27,279.48a5.14,5.14,0,0,0-.23,7.38,5.41,5.41,0,0,0,7.53.23,6.32,6.32,0,0,0,.56-.6c4.53-4.87,9.2-9.58,14-14.23A405.06,405.06,0,0,1,161,221.73a5.17,5.17,0,0,0,1.66-7.21,5.37,5.37,0,0,0-5.19-2.38Z" transform="translate(-73.59 -110.41)"/><path class="cls-2" d="M366.09,313.44l-54.85,60.94,8,6.85,54.85-60.94Z" transform="translate(-73.59 -110.41)"/><path class="cls-2" d="M290.89,188.47C250.41,203.41,221,225.76,209.5,264.8l10.28,2.85c10.45-35.58,35.94-55,74.82-69.36Z" transform="translate(-73.59 -110.41)"/><path class="cls-2" d="M262.43,145.56a5.31,5.31,0,0,0-2.68,1.24c-13.56,11.56-19.73,26.24-18,42.06a5.33,5.33,0,0,0,10.65-.5,5.4,5.4,0,0,0-.08-.69c-1.41-12.71,2.83-23.11,14.37-32.95a5.15,5.15,0,0,0,.68-7.36,5.41,5.41,0,0,0-5-1.81Z" transform="translate(-73.59 -110.41)"/><path class="cls-2" d="M281.29,260.16a39.72,39.72,0,0,0-27.24,13l-15,16.61a5.15,5.15,0,0,0-.16,7.38,5.4,5.4,0,0,0,8.1-.45L262,280.12a29.43,29.43,0,0,1,41-2.52c12.33,10.65,15.09,27.76,4.58,39.44l-17.45,19.39a5.14,5.14,0,0,0-.08,7.38,5.41,5.41,0,0,0,7.54.09,5.52,5.52,0,0,0,.55-.63l17.45-19.38c14.58-16.21,10.6-40.21-5.52-54.14A40.13,40.13,0,0,0,281.29,260.16Z" transform="translate(-73.59 -110.41)"/><path class="cls-2" d="M380.45,328.24,325.6,389.19l7.93,6.93,54.85-60.95Z" transform="translate(-73.59 -110.41)"/><path class="cls-2" d="M308,203.11c-20,6.57-38.19,15.08-52.57,27.73s-25.5,31-29.68,53.21L236.29,286c3.79-20.15,13.46-36.1,26.27-47.37s29.61-19.26,48.83-25.57Z" transform="translate(-73.59 -110.41)"/></svg>