<svg id="Layer_1" data-name="Layer 1" xmlns="http://www.w3.org/2000/svg" viewBox="0 0 386.19 260.41"><defs><style>.cls-1{fill:#eabf7a;}.cls-2{fill:#231f20;}</style></defs><polygon class="cls-1" points="32.12 163.45 50.37 145.2 83.23 137.9 116.08 141.55 141.64 116 163.54 101.39 178.15 97.74 178.15 83.14 214.65 53.94 218.3 46.63 225.6 13.78 236.56 2.83 251.16 6.48 251.16 13.78 342.42 13.78 346.07 28.38 338.77 39.33 327.82 57.59 331.47 83.14 349.72 97.74 357.02 148.85 349.72 159.8 276.71 159.8 181.8 199.96 119.74 203.61 57.68 185.36 28.47 170.75 32.12 163.45"/><polygon class="cls-1" points="284.01 178.06 346.07 178.06 360.68 163.45 378.93 199.96 382.58 225.51 367.98 229.16 367.98 243.77 338.77 240.12 335.12 229.16 324.17 232.81 320.52 240.12 291.31 243.77 280.36 236.47 276.71 232.81 269.41 214.56 258.46 210.91 207.35 229.16 200.05 243.77 159.89 254.72 152.59 243.77 141.64 243.77 137.99 254.72 90.53 251.07 86.88 240.12 75.93 236.47 64.98 243.77 6.57 221.86 10.22 196.31 10.22 185.36 10.22 178.06 94.18 218.21 167.19 218.21 254.81 181.71 284.01 178.06"/><path class="cls-2" d="M188.26,353.23c-22,0-44.92-4.62-68.46-13.87-45.35-17.81-43.76-22.56-42.6-26l.07,0c1.3-4.25,7-16.61,18.86-25.7,14.38-11,32.44-13.76,53.71-8.07,6.44,1.46,13.59,1.23,19-.65,4.69-1.64,7.48-5.21,10.72-9.34a70.56,70.56,0,0,1,5-6c8.93-9.2,28.75-23.84,42.94-26a4.31,4.31,0,0,1,1.32,8.52c-11.55,1.78-29.85,15-38.08,23.51a64.94,64.94,0,0,0-4.44,5.29c-3.73,4.76-7.59,9.69-14.65,12.16s-15.65,2.75-23.89.87C105.36,276.6,89.6,306,86.14,314.1c5.14,3.76,24,12.18,36.81,17.23,35.82,14.08,70,17,101.43,8.6C247.61,333.76,269,323.2,292.44,311c23.32-12.07,56.16-16,100.38-12.15,2.31.21,4.62.41,6.93.7l4.21-5.72c.17-19.95-3.47-48.53-12.36-52.18a4.31,4.31,0,0,1,3.28-8c17.75,7.3,17.85,52.66,17.69,61.68a4.35,4.35,0,0,1-.84,2.48l-6.55,8.9a4.35,4.35,0,0,1-4.14,1.71c-2.89-.46-5.79-.72-8.86-1-42.65-3.75-73.94-.09-95.78,11.21-23.06,11.94-45.76,23.18-69.8,29.57A149.39,149.39,0,0,1,188.26,353.23Z" transform="translate(-51.7 -143.89)"/><path class="cls-2" d="M250,266.06c-9.9,0-17.16-3.11-21.6-9.26-8.47-11.73-2.57-29.91-2.32-30.68a4.46,4.46,0,0,1,1.37-2l41.2-33.75a4.31,4.31,0,0,1,7,3.08c.55,9.15,3.41,11.68,4.46,11.88L300.25,207l1.73-5.23a4.31,4.31,0,0,1,5.3-2.78c8.31,2.42,22.36,3.7,40.64,3.69,16.47,0,30.78-1.06,30.91-1.07a4.23,4.23,0,0,1,3.17,1.05,4.4,4.4,0,0,1,1.46,3c0,.12.69,11.95,3.55,20.73,2,6.22,6.26,7,6.74,7.08a4.38,4.38,0,0,1,3.74,4.19,4.29,4.29,0,0,1-3.47,4.33c-1,.18-96.11,17.93-136,23.52A56.54,56.54,0,0,1,250,266.06ZM234,230c-1.34,4.87-3,15.58,1.48,21.79,3.54,4.89,10.85,6.63,21.36,5.16,31.9-4.47,99.42-16.78,125.28-21.54a21.75,21.75,0,0,1-3.25-6.38,95,95,0,0,1-3.6-18.58c-5.56.32-15.92.81-27.29.82-16.74,0-29.83-1-39-3l-1.53,4.64a4.3,4.3,0,0,1-4.44,2.94L279.51,214h0c-.86,0-8.2-.52-11.2-12.08Z" transform="translate(-51.7 -143.89)"/><path class="cls-2" d="M306.08,207.39a4.31,4.31,0,0,1-4.31-4.15L300,154.42c-4.27-1.63-10.81-3.12-13-.27-11.14,14.58-11.29,39.33-11.29,39.58a4.31,4.31,0,0,1-4.31,4.31h0a4.31,4.31,0,0,1-4.31-4.31c0-1.13.13-27.88,13-44.78,7.53-10.06,24.11-2.18,26-1.25a4.31,4.31,0,0,1,2.39,3.69l1.89,51.53a4.31,4.31,0,0,1-4.14,4.47Z" transform="translate(-51.7 -143.89)"/><path class="cls-2" d="M379.16,210.16a4.31,4.31,0,0,1-4.2-3.33c-3.3-14.27,13.45-29.67,15.37-31.37,2.43-2.44,3.68-4.94,3.53-7.24a8.27,8.27,0,0,0-2.36-4.91l-85.44.05a4.31,4.31,0,1,1,0-8.62l87.14-.05a4.28,4.28,0,0,1,2.58.86c.63.47,6.18,4.83,6.69,12,.36,4.93-1.73,9.69-6.21,14.17-4.05,3.64-14.71,15.29-12.89,23.17a4.31,4.31,0,0,1-3.23,5.17A5.32,5.32,0,0,1,379.16,210.16Z" transform="translate(-51.7 -143.89)"/><path class="cls-2" d="M208.75,404.29a4.33,4.33,0,0,1-4.22-3.42l-2-9.45-3.27.3c-.45,2.33-1.21,5.44-2.26,9.3a4.32,4.32,0,0,1-4,3.18c-26.63.94-52.66-5.46-53.68-5.72A4.32,4.32,0,0,1,136,394.3v-8.92l-7.23-2.06-5.7,7.13a4.33,4.33,0,0,1-3.36,1.62c-18.23,0-37.07-9.29-55.3-18.28-3.46-1.71-6.89-3.4-10.27-5a4.31,4.31,0,0,1-1.74-6.29c5.47-8.19,5.6-11.4,5.81-16.71.07-1.68.14-3.52.37-5.7-5.24-6.75-2.2-17.2.69-22.7A4.32,4.32,0,0,1,66,316.16a93.21,93.21,0,0,0,13.1,10c27.4,17,54,28,79.13,32.79a139.86,139.86,0,0,0,56.7-1.34,232,232,0,0,0,31.34-9.71c2.38-.89,4.84-1.78,7.32-2.68,8.61-3.11,17.51-6.32,24.91-10.65A131.33,131.33,0,0,1,310.26,321c15.71-4.22,34.35-6.37,55.4-6.38,1.74,0,3.49,0,5.22,0,.88,0,2.64.23,6.54.73,5.81.73,14.76,1.8,18.63,1.81a121.82,121.82,0,0,1,14-15.28,4.25,4.25,0,0,1,3.15-1.09,4.33,4.33,0,0,1,3,1.48c18.55,21.46,21.56,66.23,21.68,68.12a4.32,4.32,0,0,1-3.25,4.46l-11.73,2.94v6.94a4.32,4.32,0,0,1-4.18,4.31l-30.92.95a4.26,4.26,0,0,1-4.38-3.59l-1.24-7.36-4.87.38L376,387.39a4.3,4.3,0,0,1-4,3.59l-31.86,1.89a4.21,4.21,0,0,1-4.3-2.82l-2.61-7.19-7,.64a4.31,4.31,0,0,1-4.68-3.81c0-.07-.95-7.79-5.93-21.06a10.11,10.11,0,0,0-1.5-.09,37.1,37.1,0,0,0-6.86.85c-3.89.85-8.36,2-11.95,4.1-8.07,4.71-15.55,8.8-25.37,11.08-.46.1-7.25,1.27-11.94,2v9.28a4.29,4.29,0,0,1-2.17,3.74c-20.2,11.56-45.54,14.58-46.61,14.71A4,4,0,0,1,208.75,404.29Zm-64.09-13.44c7.32,1.57,25.82,5,44.82,4.81a52.37,52.37,0,0,0,1.67-7.89,3.85,3.85,0,0,1,1-3,4.11,4.11,0,0,1,2.92-1.35l10.48-1a4.35,4.35,0,0,1,4.62,3.4l2,9.25c7.28-1.22,23.5-4.56,37.28-11.86V372.69a4.31,4.31,0,0,1,4.58-4.3c2-.19,12.92-2,14.08-2.23,8.59-2,15.47-5.76,22.92-10.12,4.63-2.7,9.91-4.08,14.46-5.07a44.77,44.77,0,0,1,8.69-1.05c4.92,0,8,1.54,9.18,4.61a133.22,133.22,0,0,1,6.09,20l6.37-.58a4.3,4.3,0,0,1,4.44,2.82l2.65,7.28,25.22-1.49,1.3-7.85a4.3,4.3,0,0,1,3.92-3.59l12.17-.95a4.27,4.27,0,0,1,4.59,3.59l1.26,7.53,23-.71v-6.12a4.3,4.3,0,0,1,3.26-4.18L429,367.43c-1-10.05-4.86-39-16.52-55.87A125,125,0,0,0,402,323.64c-1.49,2-4,2.2-6.21,2.2-4.65,0-13.21-1.08-19.46-1.88-2.76-.35-4.88-.64-5.6-.66-1.67,0-3.37,0-5.07,0-20.3,0-38.18,2.06-53.16,6.09a122.48,122.48,0,0,0-29.67,12.71c-8.08,4.72-17.36,8.07-26.33,11.31-2.44.89-4.86,1.75-7.21,2.64a241.41,241.41,0,0,1-32.48,10,148.45,148.45,0,0,1-60.2,1.41c-26.16-4.95-53.77-16.37-82.08-33.94A88.35,88.35,0,0,1,65,326.63c-.85,3.23-1.11,6.9,1,8.74a4.31,4.31,0,0,1,1.44,3.84,63.41,63.41,0,0,0-.54,6.91c-.22,5.73-.61,9.95-4.63,17,2,1,4,2,6,3,16.61,8.19,33.77,16.65,49.44,17.34l6.16-7.71a4.32,4.32,0,0,1,4.55-1.46L141.53,378a4.31,4.31,0,0,1,3.13,4.14v8.74Z" transform="translate(-51.7 -143.89)"/><path class="cls-2" d="M244,248.36a8.17,8.17,0,0,1-.58-16.33l.57,0a8.18,8.18,0,0,1,.58,16.33Z" transform="translate(-51.7 -143.89)"/><path class="cls-2" d="M258.46,239.84a8.17,8.17,0,0,1-.57-16.33l.57,0a8.21,8.21,0,0,1,8.16,7.62,8.18,8.18,0,0,1-7.59,8.71Z" transform="translate(-51.7 -143.89)"/><path class="cls-2" d="M272.89,231.32a8.17,8.17,0,0,1-.57-16.33l.57,0a8.21,8.21,0,0,1,8.16,7.62,8.18,8.18,0,0,1-7.59,8.72Z" transform="translate(-51.7 -143.89)"/><path class="cls-2" d="M249.33,280.75a4.31,4.31,0,0,1-.72-8.56l17-2.89a4.31,4.31,0,1,1,1.44,8.49l-17,2.89A3.68,3.68,0,0,1,249.33,280.75Zm34-5.78a4.31,4.31,0,0,1-.72-8.56l17-2.9a4.31,4.31,0,0,1,1.45,8.5l-17,2.89A4.39,4.39,0,0,1,283.33,275Zm34-5.79a4.31,4.31,0,0,1-.72-8.56l17-2.89a4.31,4.31,0,0,1,1.44,8.5l-17,2.89A4.37,4.37,0,0,1,317.32,269.18Zm34-5.78a4.31,4.31,0,0,1-.73-8.56l17-2.9a4.31,4.31,0,0,1,1.44,8.5l-17,2.89A3.65,3.65,0,0,1,351.32,263.4Zm34-5.79a4.31,4.31,0,0,1-.72-8.56l3.19-.54a4.31,4.31,0,0,1,1.44,8.5l-3.19.54A4.37,4.37,0,0,1,385.31,257.61Z" transform="translate(-51.7 -143.89)"/></svg>